<svg width="3840" height="512" viewBox="0 0 3840 512" fill="none" xmlns="http://www.w3.org/2000/svg">
<g clip-path="url(#clip0_13_101)">
<path d="M889.183 469.16C856.703 469.16 828.703 463.933 805.183 453.48C782.036 442.653 760.756 426.413 741.343 404.76L798.463 348.2C811.156 362.76 825.156 374.147 840.463 382.36C856.143 390.2 874.249 394.12 894.783 394.12C913.449 394.12 927.823 390.76 937.903 384.04C948.356 377.32 953.583 367.987 953.583 356.04C953.583 345.213 950.223 336.44 943.503 329.72C936.783 323 927.823 317.213 916.623 312.36C905.796 307.507 893.663 302.84 880.223 298.36C867.156 293.88 854.089 288.84 841.023 283.24C827.956 277.267 815.823 269.987 804.623 261.4C793.796 252.44 785.023 241.427 778.303 228.36C771.583 214.92 768.223 198.12 768.223 177.96C768.223 153.693 774.009 132.787 785.583 115.24C797.529 97.6933 813.956 84.44 834.863 75.48C855.769 66.1467 879.849 61.48 907.103 61.48C934.729 61.48 959.929 66.3333 982.703 76.04C1005.85 85.7467 1024.89 99 1039.82 115.8L982.703 172.36C970.756 160.04 958.623 150.893 946.303 144.92C934.356 138.947 920.729 135.96 905.423 135.96C890.116 135.96 877.983 138.947 869.023 144.92C860.063 150.52 855.583 158.733 855.583 169.56C855.583 179.64 858.943 187.853 865.663 194.2C872.383 200.173 881.156 205.4 891.983 209.88C903.183 214.36 915.316 218.84 928.383 223.32C941.823 227.8 955.076 233.027 968.143 239C981.209 244.973 993.156 252.627 1003.98 261.96C1015.18 270.92 1024.14 282.493 1030.86 296.68C1037.58 310.493 1040.94 327.667 1040.94 348.2C1040.94 385.907 1027.5 415.587 1000.62 437.24C973.743 458.52 936.596 469.16 889.183 469.16ZM1291.06 463V73.24H1378.98V463H1291.06ZM1167.3 144.36V67.64H1502.74V144.36H1167.3ZM1820.69 469.16C1788.21 469.16 1759.46 462.253 1734.45 448.44C1709.81 434.627 1690.4 415.587 1676.21 391.32C1662.4 366.68 1655.49 338.68 1655.49 307.32V67.64H1743.97V312.36C1743.97 328.04 1747.33 341.667 1754.05 353.24C1760.77 364.813 1769.92 373.773 1781.49 380.12C1793.44 386.093 1806.5 389.08 1820.69 389.08C1835.62 389.08 1848.69 386.093 1859.89 380.12C1871.09 373.773 1879.86 365 1886.21 353.8C1892.93 342.227 1896.29 328.6 1896.29 312.92V67.64H1984.77V307.88C1984.77 339.24 1977.86 367.053 1964.05 391.32C1950.24 415.587 1931.01 434.627 1906.37 448.44C1881.73 462.253 1853.17 469.16 1820.69 469.16ZM2226.21 463V385.72H2324.21C2348.11 385.72 2369.01 381.053 2386.93 371.72C2404.85 362.013 2418.67 348.013 2428.37 329.72C2438.08 311.427 2442.93 289.773 2442.93 264.76C2442.93 239.747 2437.89 218.28 2427.81 200.36C2418.11 182.44 2404.29 168.627 2386.37 158.92C2368.83 149.213 2348.11 144.36 2324.21 144.36H2223.41V67.64H2325.33C2355.2 67.64 2382.64 72.4933 2407.65 82.2C2433.04 91.5333 2455.07 105.16 2473.73 123.08C2492.77 140.627 2507.33 161.533 2517.41 185.8C2527.87 209.693 2533.09 236.2 2533.09 265.32C2533.09 294.067 2527.87 320.573 2517.41 344.84C2507.33 369.107 2492.96 390.013 2474.29 407.56C2455.63 425.107 2433.6 438.733 2408.21 448.44C2383.2 458.147 2355.95 463 2326.45 463H2226.21ZM2166.85 463V67.64H2254.77V463H2166.85ZM2701.04 463V67.64H2788.96V463H2701.04ZM2977.1 463V67.64H3065.02V463H2977.1ZM3044.3 463V386.84H3261.02V463H3044.3ZM3044.3 297.8V224.44H3241.42V297.8H3044.3ZM3044.3 143.24V67.64H3258.22V143.24H3044.3ZM3615.25 469.72C3585.38 469.72 3557.75 464.493 3532.37 454.04C3507.35 443.587 3485.33 429.027 3466.29 410.36C3447.25 391.693 3432.5 370.04 3422.05 345.4C3411.59 320.387 3406.37 293.507 3406.37 264.76C3406.37 235.64 3411.59 208.76 3422.05 184.12C3432.5 159.48 3447.06 138.013 3465.73 119.72C3484.39 101.053 3506.23 86.68 3531.25 76.6C3556.63 66.1466 3584.26 60.92 3614.13 60.92C3643.62 60.92 3670.87 66.1466 3695.89 76.6C3721.27 86.68 3743.3 101.053 3761.97 119.72C3781.01 138.013 3795.75 159.667 3806.21 184.68C3816.66 209.32 3821.89 236.2 3821.89 265.32C3821.89 294.067 3816.66 320.947 3806.21 345.96C3795.75 370.6 3781.19 392.253 3762.53 410.92C3743.86 429.213 3721.83 443.587 3696.45 454.04C3671.43 464.493 3644.37 469.72 3615.25 469.72ZM3614.13 389.64C3637.65 389.64 3658.18 384.413 3675.73 373.96C3693.65 363.507 3707.46 348.947 3717.17 330.28C3726.87 311.24 3731.73 289.4 3731.73 264.76C3731.73 246.093 3728.93 229.293 3723.33 214.36C3717.73 199.053 3709.7 185.987 3699.25 175.16C3688.79 163.96 3676.29 155.56 3661.73 149.96C3647.54 143.987 3631.67 141 3614.13 141C3590.61 141 3569.89 146.227 3551.97 156.68C3534.42 166.76 3520.79 181.133 3511.09 199.8C3501.38 218.093 3496.53 239.747 3496.53 264.76C3496.53 283.427 3499.33 300.413 3504.93 315.72C3510.53 331.027 3518.37 344.28 3528.45 355.48C3538.9 366.307 3551.41 374.707 3565.97 380.68C3580.53 386.653 3596.58 389.64 3614.13 389.64Z" fill="black"/>
<g clip-path="url(#clip1_13_101)">
<rect width="220" height="220" fill="black"/>
<circle cx="402" cy="402" r="110" fill="black"/>
<rect x="292" y="147" width="220" height="74" fill="black"/>
<rect x="292" width="220" height="73" fill="black"/>
<path d="M110 306L220 497H0L110 306Z" fill="black"/>
</g>
</g>
<defs>
<clipPath id="clip0_13_101">
<rect width="3840" height="512" fill="white"/>
</clipPath>
<clipPath id="clip1_13_101">
<rect width="512" height="512" fill="white"/>
</clipPath>
</defs>
</svg>
