<svg width="2332" height="512" viewBox="0 0 2332 512" fill="none" xmlns="http://www.w3.org/2000/svg">
<g clip-path="url(#clip0_2_15)">
<rect x="56" y="56" width="172" height="172" fill="black"/>
<circle cx="370" cy="370" r="86" fill="black"/>
<rect x="284" y="171" width="172" height="57.3333" fill="black"/>
<rect x="284" y="56" width="172" height="57.3333" fill="black"/>
<path d="M142.025 295L228.05 444H56L142.025 295Z" fill="black"/>
<path d="M704.273 408.4C681.073 408.4 661.073 404.667 644.273 397.2C627.74 389.467 612.54 377.867 598.673 362.4L639.473 322C648.54 332.4 658.54 340.533 669.473 346.4C680.673 352 693.607 354.8 708.273 354.8C721.607 354.8 731.873 352.4 739.073 347.6C746.54 342.8 750.273 336.133 750.273 327.6C750.273 319.867 747.873 313.6 743.073 308.8C738.273 304 731.873 299.867 723.873 296.4C716.14 292.933 707.473 289.6 697.873 286.4C688.54 283.2 679.207 279.6 669.873 275.6C660.54 271.333 651.873 266.133 643.873 260C636.14 253.6 629.873 245.733 625.073 236.4C620.273 226.8 617.873 214.8 617.873 200.4C617.873 183.067 622.007 168.133 630.273 155.6C638.807 143.067 650.54 133.6 665.473 127.2C680.407 120.533 697.607 117.2 717.073 117.2C736.807 117.2 754.807 120.667 771.073 127.6C787.607 134.533 801.207 144 811.873 156L771.073 196.4C762.54 187.6 753.873 181.067 745.073 176.8C736.54 172.533 726.807 170.4 715.873 170.4C704.94 170.4 696.273 172.533 689.873 176.8C683.473 180.8 680.273 186.667 680.273 194.4C680.273 201.6 682.673 207.467 687.473 212C692.273 216.267 698.54 220 706.273 223.2C714.273 226.4 722.94 229.6 732.273 232.8C741.873 236 751.34 239.733 760.673 244C770.007 248.267 778.54 253.733 786.273 260.4C794.273 266.8 800.673 275.067 805.473 285.2C810.273 295.067 812.673 307.333 812.673 322C812.673 348.933 803.073 370.133 783.873 385.6C764.673 400.8 738.14 408.4 704.273 408.4ZM911.33 404V125.6H974.13V404H911.33ZM822.93 176.4V121.6H1062.53V176.4H822.93ZM1209.64 408.4C1186.44 408.4 1165.9 403.467 1148.04 393.6C1130.44 383.733 1116.57 370.133 1106.44 352.8C1096.57 335.2 1091.64 315.2 1091.64 292.8V121.6H1154.84V296.4C1154.84 307.6 1157.24 317.333 1162.04 325.6C1166.84 333.867 1173.37 340.267 1181.64 344.8C1190.17 349.067 1199.5 351.2 1209.64 351.2C1220.3 351.2 1229.64 349.067 1237.64 344.8C1245.64 340.267 1251.9 334 1256.44 326C1261.24 317.733 1263.64 308 1263.64 296.8V121.6H1326.84V293.2C1326.84 315.6 1321.9 335.467 1312.04 352.8C1302.17 370.133 1288.44 383.733 1270.84 393.6C1253.24 403.467 1232.84 408.4 1209.64 408.4ZM1419.3 404V348.8H1489.3C1506.36 348.8 1521.3 345.467 1534.1 338.8C1546.9 331.867 1556.76 321.867 1563.7 308.8C1570.63 295.733 1574.1 280.267 1574.1 262.4C1574.1 244.533 1570.5 229.2 1563.3 216.4C1556.36 203.6 1546.5 193.733 1533.7 186.8C1521.16 179.867 1506.36 176.4 1489.3 176.4H1417.3V121.6H1490.1C1511.43 121.6 1531.03 125.067 1548.9 132C1567.03 138.667 1582.76 148.4 1596.1 161.2C1609.7 173.733 1620.1 188.667 1627.3 206C1634.76 223.067 1638.5 242 1638.5 262.8C1638.5 283.333 1634.76 302.267 1627.3 319.6C1620.1 336.933 1609.83 351.867 1596.5 364.4C1583.16 376.933 1567.43 386.667 1549.3 393.6C1531.43 400.533 1511.96 404 1490.9 404H1419.3ZM1376.9 404V121.6H1439.7V404H1376.9ZM1678.46 404V121.6H1741.26V404H1678.46ZM1795.65 404V121.6H1858.45V404H1795.65ZM1843.65 404V349.6H1998.45V404H1843.65ZM1843.65 286V233.6H1984.45V286H1843.65ZM1843.65 175.6V121.6H1996.45V175.6H1843.65ZM2171.46 408.8C2150.13 408.8 2130.39 405.067 2112.26 397.6C2094.39 390.133 2078.66 379.733 2065.06 366.4C2051.46 353.067 2040.93 337.6 2033.46 320C2025.99 302.133 2022.26 282.933 2022.26 262.4C2022.26 241.6 2025.99 222.4 2033.46 204.8C2040.93 187.2 2051.33 171.867 2064.66 158.8C2077.99 145.467 2093.59 135.2 2111.46 128C2129.59 120.533 2149.33 116.8 2170.66 116.8C2191.73 116.8 2211.19 120.533 2229.06 128C2247.19 135.2 2262.93 145.467 2276.26 158.8C2289.86 171.867 2300.39 187.333 2307.86 205.2C2315.33 222.8 2319.06 242 2319.06 262.8C2319.06 283.333 2315.33 302.533 2307.86 320.4C2300.39 338 2289.99 353.467 2276.66 366.8C2263.33 379.867 2247.59 390.133 2229.46 397.6C2211.59 405.067 2192.26 408.8 2171.46 408.8ZM2170.66 351.6C2187.46 351.6 2202.13 347.867 2214.66 340.4C2227.46 332.933 2237.33 322.533 2244.26 309.2C2251.19 295.6 2254.66 280 2254.66 262.4C2254.66 249.067 2252.66 237.067 2248.66 226.4C2244.66 215.467 2238.93 206.133 2231.46 198.4C2223.99 190.4 2215.06 184.4 2204.66 180.4C2194.53 176.133 2183.19 174 2170.66 174C2153.86 174 2139.06 177.733 2126.26 185.2C2113.73 192.4 2103.99 202.667 2097.06 216C2090.13 229.067 2086.66 244.533 2086.66 262.4C2086.66 275.733 2088.66 287.867 2092.66 298.8C2096.66 309.733 2102.26 319.2 2109.46 327.2C2116.93 334.933 2125.86 340.933 2136.26 345.2C2146.66 349.467 2158.13 351.6 2170.66 351.6Z" fill="black"/>
</g>
<defs>
<clipPath id="clip0_2_15">
<rect width="2332" height="512" fill="white"/>
</clipPath>
</defs>
</svg>
