<svg width="3081" height="409" viewBox="0 0 3081 409" fill="none" xmlns="http://www.w3.org/2000/svg">
<path d="M147.84 408.24C115.36 408.24 87.36 403.013 63.84 392.56C40.6933 381.733 19.4133 365.493 -2.15471e-05 343.84L57.12 287.28C69.8133 301.84 83.8133 313.227 99.12 321.44C114.8 329.28 132.907 333.2 153.44 333.2C172.107 333.2 186.48 329.84 196.56 323.12C207.013 316.4 212.24 307.067 212.24 295.12C212.24 284.293 208.88 275.52 202.16 268.8C195.44 262.08 186.48 256.293 175.28 251.44C164.453 246.587 152.32 241.92 138.88 237.44C125.813 232.96 112.747 227.92 99.68 222.32C86.6133 216.347 74.48 209.067 63.28 200.48C52.4533 191.52 43.68 180.507 36.96 167.44C30.24 154 26.88 137.2 26.88 117.04C26.88 92.7734 32.6666 71.8667 44.24 54.32C56.1866 36.7734 72.6133 23.52 93.52 14.56C114.427 5.22671 138.507 0.560043 165.76 0.560043C193.387 0.560043 218.587 5.41337 241.36 15.12C264.507 24.8267 283.547 38.08 298.48 54.88L241.36 111.44C229.413 99.12 217.28 89.9734 204.96 84C193.013 78.0267 179.387 75.04 164.08 75.04C148.773 75.04 136.64 78.0267 127.68 84C118.72 89.6 114.24 97.8134 114.24 108.64C114.24 118.72 117.6 126.933 124.32 133.28C131.04 139.253 139.813 144.48 150.64 148.96C161.84 153.44 173.973 157.92 187.04 162.4C200.48 166.88 213.733 172.107 226.8 178.08C239.867 184.053 251.813 191.707 262.64 201.04C273.84 210 282.8 221.573 289.52 235.76C296.24 249.573 299.6 266.747 299.6 287.28C299.6 324.987 286.16 354.667 259.28 376.32C232.4 397.6 195.253 408.24 147.84 408.24ZM549.719 402.08V12.32H637.639V402.08H549.719ZM425.959 83.44V6.72003H761.399V83.44H425.959ZM1079.35 408.24C1046.87 408.24 1018.12 401.333 993.107 387.52C968.467 373.707 949.054 354.667 934.867 330.4C921.054 305.76 914.147 277.76 914.147 246.4V6.72003H1002.63V251.44C1002.63 267.12 1005.99 280.747 1012.71 292.32C1019.43 303.893 1028.57 312.853 1040.15 319.2C1052.09 325.173 1065.16 328.16 1079.35 328.16C1094.28 328.16 1107.35 325.173 1118.55 319.2C1129.75 312.853 1138.52 304.08 1144.87 292.88C1151.59 281.307 1154.95 267.68 1154.95 252V6.72003H1243.43V246.96C1243.43 278.32 1236.52 306.133 1222.71 330.4C1208.89 354.667 1189.67 373.707 1165.03 387.52C1140.39 401.333 1111.83 408.24 1079.35 408.24ZM1484.87 402.08V324.8H1582.87C1606.76 324.8 1627.67 320.133 1645.59 310.8C1663.51 301.093 1677.32 287.093 1687.03 268.8C1696.74 250.507 1701.59 228.853 1701.59 203.84C1701.59 178.827 1696.55 157.36 1686.47 139.44C1676.76 121.52 1662.95 107.707 1645.03 98C1627.48 88.2934 1606.76 83.44 1582.87 83.44H1482.07V6.72003H1583.99C1613.86 6.72003 1641.3 11.5734 1666.31 21.28C1691.7 30.6134 1713.72 44.24 1732.39 62.16C1751.43 79.7067 1765.99 100.613 1776.07 124.88C1786.52 148.773 1791.75 175.28 1791.75 204.4C1791.75 233.147 1786.52 259.653 1776.07 283.92C1765.99 308.187 1751.62 329.093 1732.95 346.64C1714.28 364.187 1692.26 377.813 1666.87 387.52C1641.86 397.227 1614.6 402.08 1585.11 402.08H1484.87ZM1425.51 402.08V6.72003H1513.43V402.08H1425.51ZM1959.7 402.08V6.72003H2047.62V402.08H1959.7ZM2235.76 402.08V6.72003H2323.68V402.08H2235.76ZM2302.96 402.08V325.92H2519.68V402.08H2302.96ZM2302.96 236.88V163.52H2500.08V236.88H2302.96ZM2302.96 82.32V6.72003H2516.88V82.32H2302.96ZM2873.9 408.8C2844.04 408.8 2816.41 403.573 2791.02 393.12C2766.01 382.667 2743.98 368.107 2724.94 349.44C2705.9 330.773 2691.16 309.12 2680.7 284.48C2670.25 259.467 2665.02 232.587 2665.02 203.84C2665.02 174.72 2670.25 147.84 2680.7 123.2C2691.16 98.56 2705.72 77.0934 2724.38 58.8C2743.05 40.1334 2764.89 25.76 2789.9 15.68C2815.29 5.22668 2842.92 1.71661e-05 2872.78 1.71661e-05C2902.28 1.71661e-05 2929.53 5.22668 2954.54 15.68C2979.93 25.76 3001.96 40.1334 3020.62 58.8C3039.66 77.0934 3054.41 98.7467 3064.86 123.76C3075.32 148.4 3080.54 175.28 3080.54 204.4C3080.54 233.147 3075.32 260.027 3064.86 285.04C3054.41 309.68 3039.85 331.333 3021.18 350C3002.52 368.293 2980.49 382.667 2955.1 393.12C2930.09 403.573 2903.02 408.8 2873.9 408.8ZM2872.78 328.72C2896.3 328.72 2916.84 323.493 2934.38 313.04C2952.3 302.587 2966.12 288.027 2975.82 269.36C2985.53 250.32 2990.38 228.48 2990.38 203.84C2990.38 185.173 2987.58 168.373 2981.98 153.44C2976.38 138.133 2968.36 125.067 2957.9 114.24C2947.45 103.04 2934.94 94.64 2920.38 89.04C2906.2 83.0667 2890.33 80.08 2872.78 80.08C2849.26 80.08 2828.54 85.3067 2810.62 95.76C2793.08 105.84 2779.45 120.213 2769.74 138.88C2760.04 157.173 2755.18 178.827 2755.18 203.84C2755.18 222.507 2757.98 239.493 2763.58 254.8C2769.18 270.107 2777.02 283.36 2787.1 294.56C2797.56 305.387 2810.06 313.787 2824.62 319.76C2839.18 325.733 2855.24 328.72 2872.78 328.72Z" fill="black"/>
</svg>
